<?xml version="1.0" standalone="yes"?>
<svg xmlns="http://www.w3.org/2000/svg" width="512" height="512">
<path style="fill:#ffffff; stroke:none;" d="M0 0L0 234L1 234C1.06015 143.174 72.7504 57.4208 152 21.6944C176.983 10.4317 206.34 1.01822 234 1L212 0L165 0L0 0z"/>
<path style="fill:#010101; stroke:none;" d="M234 0.424377C187.971 6.47089 146.604 19.3708 108 46.0255C81.9464 64.0145 59.5176 87.7135 42 114C25.082 139.387 12.4017 168.111 6 198C-0.816907 229.827 -2.74442 263.734 2.43827 296C24.7696 435.03 156.605 529.337 295 509.715C330.66 504.659 366.011 491.227 396 471.333C432.174 447.335 462.01 415.236 482.691 377C541.546 268.19 510.028 126.647 412 51.8843C386.555 32.4785 357.737 18.1154 327 9.29089C297.924 0.943146 264.205 -3.5434 234 0.424377z"/>
<path style="fill:#ffffff; stroke:none;" d="M278 0L278 1C368.826 1.05988 454.579 72.7506 490.306 152C501.568 176.983 510.982 206.34 511 234L512 234L512 0L278 0M239 24.4244C191.691 30.636 148.923 44.1561 111 74.4491C17.2551 149.333 -2.25329 285.318 62.6952 385C78.458 409.193 99.5736 429.86 123 446.573C145.052 462.305 170.768 473.983 197 480.626C224.95 487.703 254.315 490.156 283 486.715C318.087 482.505 351.026 470.393 381 451.808C403.554 437.823 423.825 419.102 439.87 398C519.442 293.348 496.137 143.195 390 66.152C369.392 51.1928 345.433 40.0116 321 33C295.309 25.6275 265.737 20.9139 239 24.4244z"/>
<path style="fill:#010101; stroke:none;" d="M232 221L209 221L209 256L232 256L232 361L280 361L280 256L311 256L315 221L280 221C280 213.029 277.07 197.679 282.514 191.225C288.874 183.684 306.193 187 315 187L315 151C292.787 151 257.317 145.061 241.529 165.015C229.435 180.301 232 202.769 232 221z"/>
<path style="fill:#ffffff; stroke:none;" d="M0 278L0 512L234 512L234 511C146.766 510.942 59.5029 442.648 24.3086 366C15.5755 346.981 9.02703 327.469 4.66127 307C2.7424 298.003 3.48414 286.3 0 278M511 278C510.982 305.66 501.568 335.017 490.306 360C454.579 439.25 368.826 510.94 278 511L278 512L512 512L512 347L512 300L511 278z"/>
</svg>
