<?xml version="1.0" standalone="yes"?>
<svg xmlns="http://www.w3.org/2000/svg" width="512" height="512">
<path style="fill:#061f38; stroke:none;" d="M0 0L0 233L1 233C1.067 208.72 9.07173 183.32 18 161C51.4402 77.4022 139.991 1.06198 234 1L212 0L165 0L0 0z"/>
<path style="fill:#ef4624; stroke:none;" d="M34 128C54.4784 141.508 76.6915 152.988 98 165.15C103.219 168.129 114.814 177.971 120.896 177.003C124.794 176.382 127.367 169.876 129.428 167C135.699 158.25 142.845 149.473 151 142.425C177.165 119.813 209.705 102.585 245 101.039C272.004 99.8568 298.554 104.422 323 116.258C336.02 122.563 352.25 140.937 367 139.903C375.298 139.321 380.521 132.479 386 127L419 94C425.567 87.4305 431.91 81.0697 429.467 71C427.088 61.1967 414.704 53.9356 407 48.4275C383.706 31.7734 357.584 18.2191 330 10.2909C241.007 -15.2878 142.109 6.8949 76 73C60.2856 88.7134 42.9258 107.313 34 128z"/>
<path style="fill:#061f38; stroke:none;" d="M278 0L278 1C320.221 1.02783 365.866 20.6425 400 44.2832C410.469 51.5337 433.159 63.4937 429.466 79C427.789 86.042 420.883 91.1167 416 96L383 129C377.663 134.335 372.304 140.633 364 139.8C354.221 138.819 345.098 128.467 337 123.425C322.383 114.325 305.845 107.778 289 104.211C205.42 86.5131 118.811 141.843 103.424 227C88.9086 307.338 139.798 388.081 220 407.116C275.207 420.218 334.415 401.411 372.05 359C383.182 346.456 396.985 328.965 400 312L328 312C313.803 312 285.713 317.336 274.015 308.442C266.015 302.36 267 294.004 267 285L267 236C267 227.764 266.646 220.045 274.015 214.638C286.272 205.646 314.303 211 329 211L442 211C458.742 211 479.734 207.58 496 211.533C508.057 214.464 510.912 227.319 511 238L512 238L512 0L278 0z"/>
<path style="fill:#ffd501; stroke:none;" d="M33 128C25.8447 145.182 16.602 161.055 11.0255 179C-3.20131 224.78 -4.29175 275.633 7.88426 322C13.6864 344.095 24.3186 363.148 33 384L62 368.421L122 334C105.1 294.78 94.4198 258.861 106.152 216C109.858 202.462 116.513 190.734 122 178L58 141.576L33 128z"/>
<path style="fill:#1483d7; stroke:none;" d="M400 312C394.201 332.287 378.584 353.807 362.996 367.715C356.892 373.161 350.71 378.581 344 383.279C341.437 385.073 336.425 387.063 335.302 390.21C333.421 395.486 343.938 408.394 346.579 413C358.993 434.654 372.368 455.917 384 478C400.543 470.872 415.6 457.951 429 446.155C473.666 406.837 501.97 351.698 510.13 293C512.854 273.408 513.189 252.66 510.95 233C509.867 223.489 506.853 213.289 496 211.329C479.049 208.269 459.232 211 442 211L333 211L294 211C287.215 211 279.969 210.044 274.015 213.97C266.181 219.136 267 227.725 267 236L267 288C267 297.041 266.664 305.619 276.001 310.312C285.633 315.153 302.399 312 313 312L400 312z"/>
<path style="fill:#061f38; stroke:none;" d="M0 279L0 512L234 512L234 511C147.141 510.942 61.5435 443.564 25.4861 368C17.4011 351.056 10.5034 333.366 6.42438 315C3.94896 303.854 4.33815 289.315 0 279M511 281C510.751 371.261 438.424 454.951 360 490.306C335.044 501.556 305.633 510.982 278 511L278 512L512 512L512 349L512 302L511 281z"/>
<path style="fill:#12aa44; stroke:none;" d="M34 384C43.1012 405.094 60.9884 423.995 77 440C136.216 499.194 225.369 523.875 307 507.551C334.86 501.98 358.272 490.086 384 479L369.15 451L334 390C320.941 395.627 308.925 402.442 295 406.116C252.927 417.216 207.181 409.59 171 385.329C156.851 375.842 144.612 364.305 134.004 351C131.147 347.417 125.686 335.62 120.896 335.102C114.218 334.38 101.654 344.834 96 348.201C75.4985 360.41 54.5524 371.88 34 384z"/>
<path style="fill:#1483d7; stroke:none;" d="M158 376L159 377L158 376M41 396L42 397L41 396M232 409L233 410L232 409M137 483L138 484L137 483M145 487L146 488L145 487M147 488L148 489L147 488M156 492L157 493L156 492M181 501L182 502L181 501z"/>
</svg>
